<svg xmlns="http://www.w3.org/2000/svg" xmlns:xlink="http://www.w3.org/1999/xlink" width="532" height="406.445" viewBox="0 0 531.99999 406.44458"><g transform="translate(-75.61 -15.067)"><path d="M335.644 257.039c10.363-3.83.059-10.732-11.585-3.607l-2.367 2.388s-3.146 5.729 1.795 6.838c3.553.793 7.216-3.793 12.157-5.619" fill="#ff7353"/><path d="M346.896 211.726s-21.469-2.504-21.469 4.104c0 6.61 1.307 9.022 1.307 9.022l4.774 30.242s.645 1.98 2.404 1.313c1.757-.672 7.202-27.563 7.202-27.563" fill="#ecc8c2"/><path d="M291.661 122.219v8.573l35.599 18.747 35.6-20.94v-9.375l-43.079-1.995z"/><path fill="#231f20" d="M362.86 119.224l-37.893 21.538-33.306-18.543 36.894-22.141zM365.049 110.595a4.876 4.876 0 0 1-4.874 4.874l-24.633-15.089a4.875 4.875 0 0 1-4.875-4.874V56.515a4.876 4.876 0 0 1 4.875-4.875l24.633 15.088c2.528 1.118 4.894 3.276 4.874 4.875v38.992z"/><path d="M360.651 110.28a4.875 4.875 0 0 1-4.874 4.875l-24.634-15.09a4.875 4.875 0 0 1-4.874-4.875V56.2a4.877 4.877 0 0 1 4.874-4.875l24.634 15.087c2.528 1.119 4.894 3.277 4.874 4.875v38.993z"/><path d="M367.07 140.533c-25.157 7.309-54.58-6.542-50.644-13.203 2.58-4.366 7.44-7.447 21.178-9.399 13.737-1.953 19.18 2.281 23.763 4.456M361.368 122.386c4.583 2.175 19.026 14.275 5.702 18.147" fill="#0e1414"/><path fill="none" d="M372.583 142.606v-25.177h-56.514v25.177"/><path d="M322.79 69.986c1.17-2.746 1.905-5.901 2.681-9.243 1.887-8.121 4.376-14.232 13.875-16.747a15.928 15.928 0 0 1 1.133-.26c.086-.019.169-.037.256-.054.408-.074.822-.142 1.253-.194.432-.052.851-.085 1.265-.11.087-.003.174-.006.26-.011a17.25 17.25 0 0 1 1.163-.015c9.825.176 13.701 5.516 17.47 12.952 1.552 3.059 3.017 5.95 4.811 8.337a1.815 1.815 0 0 1-2.902 2.179 28.971 28.971 0 0 1-1.13-1.629c.52 2.112.792 2.303 1.315 4.032a1.812 1.812 0 0 1-1.21 2.262 1.81 1.81 0 0 1-2.024-.729c.192 1.155.22 1.046.378 2.044l.104.658a1.814 1.814 0 0 1-3.497.902l.282 1.878.097.661a1.813 1.813 0 0 1-1.527 2.061 1.808 1.808 0 0 1-1.995-1.265l.042.3.075.551a1.812 1.812 0 0 1-1.579 2.052 1.801 1.801 0 0 1-1.5-.53c.006.06.014.116.022.177l.145 1.105a1.816 1.816 0 0 1-1.563 2.035l-.019.002a1.813 1.813 0 0 1-2.014-1.555l.214 1.773a1.814 1.814 0 1 1-3.603.435l-.214-1.772a1.812 1.812 0 0 1-1.585 1.99l-.011.002a1.818 1.818 0 0 1-2.01-1.603l-.124-1.115-.018-.167a1.805 1.805 0 0 1-1.331.871c-.012 0-.023.002-.035.003a1.812 1.812 0 0 1-1.989-1.619l-.056-.553c-.014-.1-.021-.201-.031-.302a1.808 1.808 0 0 1-1.586 1.698c-.017.003-.033.006-.05.007a1.816 1.816 0 0 1-1.975-1.639l-.063-.665-.173-1.891a1.812 1.812 0 0 1-1.585 1.608c-.021.004-.045.006-.068.008a1.814 1.814 0 0 1-1.959-1.658l-.057-.663c-.084-1.006-.031-.903-.12-2.07a1.815 1.815 0 0 1-1.792 1.186 1.816 1.816 0 0 1-1.716-1.909c.098-1.804.316-2.056.318-4.228a31.47 31.47 0 0 1-.71 1.849 1.81 1.81 0 0 1-2.382.958 1.812 1.812 0 0 1-.956-2.38" fill="#331416"/><path d="M332.399 60.295c1.104 9.123 8.859 11.161 12.916 10.669 4.056-.491 11.102-4.319 9.998-13.443-.847-6.99-5.999-12.116-12.989-11.27-6.991.846-10.771 7.053-9.925 14.044" fill="#664d4e"/><path d="M355.257 57.07s.074-13.827-13.105-12.232c-13.182 1.597-9.807 15.007-9.807 15.007s-1.209-10.103 10.386-9.399c11.594.702 12.526 6.624 12.526 6.624" fill="#331416"/><path fill="#a8999a" d="M340.176 58.8l3.303 5.782-5.129.621z"/><path d="M341.932 70.984l1.297-5.154a1.695 1.695 0 0 1 1.905-1.263 1.7 1.7 0 0 1 1.435 1.78l-.326 5.305a2.704 2.704 0 0 0 1.899 2.745c5.639 1.748 5.949 5.059 5.949 5.059l-12.52 8.093-11.836-11.361s3.652-3.205 9.557-3.162a2.708 2.708 0 0 0 2.64-2.042" fill="#664d4e"/><path d="M310.326 111.421l4.511-18.92 9.083-11.613c5.163-5.113 9.793-8.216 9.858-4.336.095 5.622-14.734 17.859-14.734 17.859M324.521 90.222l-7.035 17.479M335.176 128.496l-.143 2.668s18.616-2.164 25.817-7.507c7.247-5.375-17.174-14.551-17.174-14.551l-4.984 4.186c2.212 8.165 15.684 9.325 15.684 9.325-6.903 1.441-19.2 5.879-19.2 5.879" fill="#664d4e"/><path d="M322.725 131.951l11.338-4.944s2.821 1.35 1.89 3.987l-3.471 2.014c-.001-.001-8.672 2.752-9.757-1.057" fill="#0e1414"/><path d="M345.058 126.762l-.285 2.606s-31.171.028-31.269-2.795c-.1-2.825 13.403-13.677 19.544-16.286l11.304 3.99-20.546 10.026c8.795-.868 21.252 2.459 21.252 2.459" fill="#664d4e"/><path d="M353.919 134l-8.044-9.397s-3.125-.017-3.438 2.762l2.244 3.328s6.6 6.261 9.238 3.307" fill="#0e1414"/><path d="M320.299 117.954c2.782 5.172 9.888 4.719 9.888 4.719l5.513-2.677 6.475-.333s3.399 2.137 5.464 2.583c7.227-1.108 8.423-7.347 8.423-7.347-5.7-4.23-9.167-4.941-9.167-4.941l-17.543.621c0-.001-4.8 2.481-9.053 7.375" fill="#00d1b8"/><path d="M352.433 100.326s3.291-11.258 2.41-16.812c-1.123-7.065-1.693-7.952-5.119-1.544l-.443 20.791s1.277.285 2.583.91c2.997-.232.569-3.345.569-3.345" fill="#664d4e"/><path d="M339.956 114.309c7.892-1.134 9.646-1.637 9.646-1.637-5.588-15.053 3.027-36.015 3.027-36.015s-.721-1.182-3.405-2.087c0 0 .317 7.558-6.469 7.171-6.785-.385-4.995-8.959-4.995-8.959-3.956.04-4.71.985-4.71.985-2.494 12.904-5.033 17.983-6.031 38.286 0-.001 5.046 3.39 12.937 2.256" fill="#ffb8a6"/><path d="M362.01 110.12c-2.949-.75-3.917-2.136-3.585-3.248.331-1.113 2.934-1.203 5.881-.443 1.677.432-.673 4.105-2.296 3.691" fill="#664d4e"/><path d="M352.433 100.326c4.856.958 9.798 6.646 9.798 6.646l-.766 1.57s-6.725-3.31-9.602-4.871" fill="#664d4e"/><path d="M358.424 106.872c.708-2.379 3.719-.563 6.338-1.981.001 0 .238 3.938-6.338 1.981" fill="#664d4e"/><ellipse cx="305.461" cy="186.576" rx="3.727" ry="5.591"/><ellipse cx="303.029" cy="186.576" rx="3.727" ry="5.591"/><path d="M371.753 149.338c0 3.086-1.668 5.59-3.728 5.59-2.06 0-3.728-2.504-3.728-5.59 0-3.09 1.668-5.596 3.728-5.596 2.059.001 3.728 2.507 3.728 5.596z"/><ellipse cx="365.594" cy="149.338" rx="3.728" ry="5.59"/><ellipse cx="366.809" cy="184.832" rx="3.727" ry="5.592"/><path d="M368.104 184.832c0 3.088-1.667 5.592-3.728 5.592-2.056 0-3.725-2.504-3.725-5.592 0-3.088 1.668-5.593 3.725-5.593 2.062 0 3.728 2.504 3.728 5.593zM308.551 149.338c0 3.086-1.667 5.59-3.726 5.59-2.06 0-3.728-2.504-3.728-5.59 0-3.09 1.668-5.596 3.728-5.596 2.059.001 3.726 2.507 3.726 5.596z"/><path d="M306.121 149.338c0 3.086-1.668 5.59-3.731 5.59-2.057 0-3.726-2.504-3.726-5.59 0-3.09 1.668-5.596 3.726-5.596 2.063.001 3.731 2.507 3.731 5.596zM298.665 181.193v5.263s1.435 2.574 4.041 1.455c2.605-1.116 66.042-37.578 66.042-37.578s1.299-.861 1.299-3.307v-4.801"/><path d="M370.046 181.193v5.263s-1.434 2.574-4.041 1.455c-2.604-1.116-66.043-37.578-66.043-37.578s-1.298-.861-1.298-3.307v-4.801"/><path d="M301.667 139.947l68.365 38.925s1.519 3.014-1.152 4.016c-2.67.999-4.673 0-4.673 0l-65.58-38.882s-1.333-1.336 0-2.502c1.335-1.17 3.04-1.557 3.04-1.557z" fill="#231f20"/><path d="M298.959 179.379l65.748-39.433s3.169-.95 4.673 1.221c1.5 2.169 0 3.672 0 3.672l-65.248 38.492s-2.835 1.28-4.505 0c-1.669-1.279-.668-3.952-.668-3.952z" fill="#231f20"/><g fill="#231f20"><path d="M327.364 142.539h14.06v20.195h-14.06z"/><ellipse cx="334.394" cy="142.542" rx="7.03" ry="1.201"/></g><path d="M337.119 141.249a2.87 2.87 0 1 1-5.741 0V129.14a2.872 2.872 0 0 1 2.87-2.871 2.872 2.872 0 0 1 2.871 2.871v12.109zM120.979 119.663h7.884v18.606h-7.884z"/><path fill="#231f20" d="M122.032 118.608h7.884v18.606h-7.884z"/><ellipse cx="114.055" cy="212.085" rx="3.344" ry="5.016"/><ellipse cx="111.874" cy="212.085" rx="3.344" ry="5.016"/><ellipse cx="170.189" cy="178.674" rx="3.344" ry="5.016"/><ellipse cx="168.008" cy="178.674" rx="3.345" ry="5.016"/><ellipse cx="169.098" cy="210.52" rx="3.344" ry="5.018"/><ellipse cx="166.917" cy="210.52" rx="3.344" ry="5.018"/><ellipse cx="113.484" cy="178.674" rx="3.344" ry="5.016"/><ellipse cx="111.302" cy="178.674" rx="3.344" ry="5.016"/><path d="M107.958 207.256v4.722s1.287 2.309 3.625 1.306c2.337-1.001 59.256-33.716 59.256-33.716s1.165-.774 1.165-2.968v-4.307"/><path d="M172.002 207.256v4.722s-1.286 2.309-3.625 1.306c-2.337-1.001-59.256-33.716-59.256-33.716s-1.165-.774-1.165-2.968v-4.307"/><path d="M110.651 170.25l61.339 34.923s1.362 2.705-1.033 3.603c-2.396.897-4.193 0-4.193 0l-58.84-34.885s-1.197-1.199 0-2.245c1.197-1.05 2.727-1.396 2.727-1.396z" fill="#231f20"/><path d="M108.221 205.629l58.991-35.379s2.845-.854 4.193 1.095c1.348 1.946 0 3.293 0 3.293l-58.542 34.536s-2.543 1.149-4.042 0c-1.498-1.148-.6-3.545-.6-3.545z" fill="#231f20"/><g fill="#231f20"><path d="M133.707 172.574h12.615v18.12h-12.615z"/><ellipse cx="140.015" cy="172.577" rx="6.308" ry="1.078"/></g><path d="M142.459 171.417a2.573 2.573 0 0 1-2.576 2.572 2.573 2.573 0 0 1-2.576-2.572v-10.864a2.577 2.577 0 0 1 2.576-2.577 2.578 2.578 0 0 1 2.576 2.577v10.864z"/><path d="M110.621 141.825v8.787l36.501 19.222 36.499-21.469v-9.612l-44.168-2.045z"/><path fill="#231f20" d="M183.621 138.753l-38.852 22.083-34.148-19.011 37.828-22.701z"/><path d="M133.567 65.736L105.35 82.3s-2.862 2.246-2.862 10.018v36.603s1.438 8.12 6.133 6.544l27.4-16.564s2.862-3.271 2.862-9.814V71.054s1.632-6.546-5.316-5.318z"/><path d="M137.331 67.601l-28.219 16.565s-2.862 2.245-2.862 10.015v36.606s1.438 8.117 6.134 6.541l27.403-16.565s2.862-3.271 2.862-9.815V72.916s1.632-6.545-5.318-5.315z" fill="#231f20"/><g opacity=".05"><defs><path id="a" transform="scale(-1) rotate(-12.275 -1980.892 1488.416)" d="M123.023 201.004h74.047v24.003h-74.047z"/></defs><clipPath id="b"><use xlink:href="#a" overflow="visible" width="730.463" height="434.979"/></clipPath><path clip-path="url(#b)" d="M159.562 225.276c-23.687 4.058-34.222-.328-35.888-5.4-1.666-5.074 7.031-5.157 28.943-15.022 52.653-23.708 59.92 11.346 6.945 20.422" fill="#0e1414"/></g><path d="M151.728 145.22c-2.362-9.748-4.903-12.246-4.903-12.246l-24.077 5.24s-1.271 3.328.629 13.176c0 0 7.257 6.376 16.32 4.404 9.065-1.974 12.031-10.574 12.031-10.574" fill="#ffb8a6"/><path d="M133.665 215.474c-1.849-.119-3.966-3.441-3.966-3.441s2.148-3.396 9.594-.264l2.29 2.607c.223 1.353-1.527 2.536-1.527 2.536s-4.544-1.32-6.391-1.438M207.68 169.096c1.732-.654 2.788-4.447 2.788-4.447s-3.046-2.623-9.253 2.548l-1.429 3.162c.182 1.359 2.203 1.979 2.203 1.979s3.957-2.587 5.691-3.242" fill="#0e1414"/><path d="M136.176 149.691c-1.835 12.615-1.178 34.221-1.178 34.221-4.502 7.928-4.361 29.077-4.361 29.077l3.438-.472 8.014-28.647 7.161-31.335-13.074-2.844z" fill="#ffb8a6"/><path d="M138.653 148.065c3.573 12.237 32.993 11.767 32.993 11.767 6.306 8.194 28.139 10.528 28.139 10.528l1.43-3.163-24.939-13.553-24.546-8.425-13.077 2.846z" fill="#ffb8a6"/><path d="M130.448 64.998a7.912 7.912 0 0 1-8.214 7.595 7.91 7.91 0 1 1 8.214-7.595" fill="#0e1414"/><path d="M128.513 71.395a7.911 7.911 0 1 1-13.151 8.79 7.911 7.911 0 0 1 13.151-8.79" fill="#0e1414"/><path d="M130.708 77.706a7.913 7.913 0 0 1 4.686 10.16 7.912 7.912 0 1 1-4.686-10.16" fill="#0e1414"/><path d="M136.194 81.522a7.91 7.91 0 0 1 9.762 5.465 7.91 7.91 0 0 1-5.465 9.762 7.91 7.91 0 0 1-9.761-5.465 7.91 7.91 0 0 1 5.464-9.762" fill="#0e1414"/><path d="M142.875 81.386a7.912 7.912 0 0 1 12.426 9.793 7.912 7.912 0 0 1-12.426-9.793" fill="#0e1414"/><path d="M148.2 77.347a7.911 7.911 0 1 1 15.808.622 7.911 7.911 0 0 1-15.808-.622" fill="#0e1414"/><path d="M145.999 90.4c.02-.517-3.283-1.065-7.379-1.228-4.096-.158-7.431.13-7.452.647-.02.518-.35 7.297 7.129 7.59 7.481.293 7.682-6.492 7.702-7.009" fill="#198c7f"/><path d="M150.134 70.95a7.911 7.911 0 0 1 13.153-8.79 7.908 7.908 0 0 1-2.181 10.972 7.908 7.908 0 0 1-10.972-2.182" fill="#0e1414"/><path d="M147.94 64.64a7.911 7.911 0 1 1 5.474-14.845 7.912 7.912 0 0 1-5.474 14.845" fill="#0e1414"/><path d="M142.454 60.824a7.91 7.91 0 0 1-9.761-5.464 7.909 7.909 0 0 1 5.464-9.762 7.91 7.91 0 0 1 4.297 15.226" fill="#0e1414"/><path d="M135.773 60.96a7.91 7.91 0 1 1-1.318-11.11 7.91 7.91 0 0 1 1.318 11.11" fill="#0e1414"/><path d="M152.671 75.592c-.421 10.751-9.274 13.866-14.056 13.679-4.779-.187-13.363-3.984-12.942-14.735.322-8.237 5.846-14.708 14.083-14.387 8.236.322 13.239 7.206 12.915 15.443" fill="#a8999a"/><path d="M124.965 74.507s-.695-16.1 14.834-15.492c15.533.608 13.579 16.604 13.579 16.604s-.229-9.986-13.816-10.518c-13.587-.531-14.597 9.406-14.597 9.406" fill="#0e1414"/><path fill="#420709" d="M139.238 73.361l-3.248 5.645 6.045.236z"/><path d="M141.167 89.836l-.335-6.256a2.002 2.002 0 0 0-3.982-.156l-.823 6.21a3.188 3.188 0 0 1-2.818 2.747c-6.918.748-10.994 4.389-10.994 4.389l15.626 12.312L154.38 98.03s-3.779-3.95-10.618-5.236a3.188 3.188 0 0 1-2.595-2.958" fill="#a8999a"/><path d="M152.862 95.35s-2.788-1.696-7.261-3.01c0 0-1.682 4.612-5.223 5.927l.011.009-2.375 6.332-1.871-6.498.009-.007c-3.425-1.59-4.743-6.318-4.743-6.318-4.562.96-7.473 2.432-7.473 2.432s1.398 33.869-3.318 52.199c0 0 5.181 3.416 13.235 4.286l2.542-4.741 2.163 4.927c8.1-.24 13.53-3.239 13.53-3.239-3.267-18.646.774-52.299.774-52.299" fill="#f1eced"/><path d="M116.851 121.949l-5.014 22.252-2.043-.251 1.544-22.475 5.723-16.412c3.818-7.667 8.484-10.969 9.083-6.435.871 6.572-9.293 23.321-9.293 23.321" fill="#a8999a"/><path d="M101.178 150.888s.566-4.286 3.516-6.33c2.948-2.046 5.97-2.792 6.75-1.667.78 1.124-.978 3.693-3.927 5.738a67.181 67.181 0 0 1-5.517 3.443l-.822-1.184z" fill="#a8999a"/><path d="M111.444 142.891c1.669 2.406-2.223 3.838-2.848 7.292 0 0-3.798-2.682 2.848-7.292" fill="#a8999a"/><path d="M123.938 94.218s-4.37 2.014-7.395 8.932c-1.173 2.683-5.207 18.327-5.207 18.327l6.837.586s6.019-10.015 8.036-13.567c5.081-8.95-2.271-14.278-2.271-14.278" fill="#f1eced"/><path d="M136.145 98.11s-3.506-2.914-4.977-8.29l-1.808 2.643c.697 3.988 4.447 9.898 4.447 9.898.322-3.439 2.338-4.251 2.338-4.251M139.153 110.206a1.356 1.356 0 1 1-2.71-.106c.029-.75.66-1.332 1.408-1.302.75.028 1.333.659 1.302 1.408M138.841 118.216a1.356 1.356 0 0 1-1.409 1.303 1.356 1.356 0 1 1 .106-2.711 1.355 1.355 0 0 1 1.303 1.408" fill="#00d1b8"/><path d="M266.929 96.073a5.91 5.91 0 0 1-5.911 5.911h-44.327a5.911 5.911 0 0 1-5.911-5.911V48.791a5.91 5.91 0 0 1 5.911-5.911h44.327a5.91 5.91 0 0 1 5.911 5.911v47.282z" fill="#231f20"/><path d="M210.336 80.523c-5.491 1.304-14.794 5.249-14.794 5.249l-.377 2.54 17.552-3.306 15.365-9.34c6.868-5.49 9.131-9.995 4.45-9.617-6.782.549-22.196 14.474-22.196 14.474" fill="#fff"/><path d="M184.47 90.224s4.015 1.893 7.416.488c3.405-1.408 5.728-3.602 5.192-4.899-.537-1.299-3.731-1.21-7.136.198a68.919 68.919 0 0 0-6.039 2.847l.567 1.366z" fill="#fff"/><path d="M238.518 60.313s-.061 7.558-5.5 12.777c-2.107 2.024-17.817 10.827-17.817 10.827s-3.35-2.533-2.382-5.983c0 0 9.302-8.277 12.286-11.055 4.035-3.758 13.413-6.566 13.413-6.566" fill="#1f7697"/><g opacity=".2"><defs><path id="c" d="M209.399 172.043h51.085v20.179h-51.085z"/></defs><clipPath id="d"><use xlink:href="#c" overflow="visible" width="730.463" height="434.979"/></clipPath><path clip-path="url(#d)" d="M260.443 183.725c-.568 3.429.725 10.935-18.751 7.712-19.476-3.224-32.836-11.623-32.27-15.053.568-3.426 8.223-6.117 27.698-2.894 19.477 3.224 23.89 6.807 23.323 10.235" fill="#20d494"/></g><path d="M253.491 46.482c-1.377 10.652-10.459 12.96-15.196 12.346-4.736-.611-12.934-5.153-11.558-15.806 1.055-8.163 7.125-14.104 15.287-13.049 8.164 1.055 12.522 8.344 11.467 16.509" fill="#fff"/><path d="M242.956 22.77c19.731 2.55 10.378 24.915 10.378 24.915 1.919-14.836-7.454-14.405-13.072-9.588-5.618 4.815-10.58-1.309-10.58-1.309s-2.55 3.187-3.1 7.438c.001-.001-3.356-24.007 16.374-21.456" fill="#2a11a6"/><path stroke-miterlimit="10" d="M235.022 43.08c-1.752-.167-3.876-2.611-7.405-1.146-.491.204-1.053.022-1.053.022l-.051.523s.906.508.8 1.608M235.022 43.08c1.752.169 5.771-1.687 10.166.539.608.308 1.402.258 1.402.258l-.05.523s-1.324.293-1.431 1.391" fill="none" stroke="#0e1414" stroke-width="1.26" stroke-linecap="round" stroke-linejoin="round"/><path stroke-miterlimit="10" d="M245.07 43.609c.496 1.442-.311 4.502-1.625 5.753-1.201 1.144-5.519.847-6.413-1.092-.988-2.15-.292-4.069-2.101-4.242-1.808-.175-1.146 1.876-2.211 3.826-.963 1.763-4.121 1.344-4.797.019-.74-1.448-.816-4.592-.221-5.931" fill="none" stroke="#0e1414" stroke-width="1.26" stroke-linecap="round" stroke-linejoin="round"/><path fill="#ffd21d" d="M235.259 43.017l-3.625 7.637 5.188.671z"/><path d="M241.92 59.508l-.368-6.421a2.053 2.053 0 0 0-1.978-1.934 2.052 2.052 0 0 0-2.11 1.789l-.821 6.378a3.266 3.266 0 0 1-2.882 2.83c-7.1.794 4.816 17.125 4.816 17.125l16.937-11.404s-3.894-4.042-10.92-5.336a3.27 3.27 0 0 1-2.674-3.027" fill="#fff"/><path d="M219.241 176.688l14.896-1.449s.401-2.414-2.117-4.188l-3.039-.115s-10.796 1.981-9.74 5.752" fill="#ff6152"/><path d="M231.997 172.262l-3.374.193-2.633-28.208 1.123-32.992h11.976c-2.375 22.967-6.091 32.992-6.091 32.992 2.068 8.765-1.001 28.015-1.001 28.015" fill="#334040"/><path d="M245.41 185.767c-1.238 1.444-5.269 1.134-5.269 1.134s-1.464-3.856 5.7-8.037c0 0 2.635-.204 3.55-.273 1.248.652 1.139 2.82 1.139 2.82s-3.882 2.914-5.12 4.356" fill="#ff6152"/><path d="M251.987 115.653c.09 13.085-3.767 33.469-3.767 33.469 3.46 8.694 1.31 29.463 1.31 29.463l-3.55.272-4.82-29.284-2.868-32.87 13.695-1.05z" fill="#334040"/><path d="M249.628 116.703c-.17-10.292-1.577-13.354-1.577-13.354h-17.759s-1.405 3.062-1.576 13.354c0 0 .167 7.979 10.455 7.979 10.29.001 10.457-7.979 10.457-7.979" fill="#334040"/><path d="M227.571 114.75c-.841-13.442 2-20.331.805-32.126-1.134-11.177 1.247-20.082 5.385-20.473 0 0-1.297 9.221 3.842 9.403 5.14.183 9.439-8.949 9.439-8.949 4.598 1.332 4.727 2.52 4.727 2.52 2.497 14.171-2.387 30.64 1.038 49.766 0-.002-16.032 7.885-25.236-.141" fill="#ffb6a4"/><path d="M242.285 120.658c8.07-.555 13.043-3.758 13.043-3.758-3.988-18.471-1.272-52.203-1.272-52.203s-2.847-1.585-7.36-2.72c0 0-1.171 4.668-4.653 6.118l.011.009.231 52.554zM234.987 68.104l.007-.009c-3.479-1.452-1.369-5.929-1.369-5.929-4.395.526-6.563 6.919-6.563 6.919s1.9 29.342-2.088 47.815c0 0 1.712 3.203 9.783 3.758l.23-52.554z" fill="#1f7697"/><path d="M263.909 88.93c-3.781.801-12.703 11.858-12.703 11.858l1.502 2.28 17.72-13.192-6.952-12.676c-4.506-7.55-8.662-10.402-8.922-5.717-.377 6.795 9.355 17.447 9.355 17.447" fill="#fff"/><path d="M254.058 64.697s4.583 1.442 8.454 7.91c1.5 2.507 7.915 17.269 7.915 17.269s-3.597.619-6.519-.946c0 0-7.846-6.544-10.293-9.805-6.165-8.221.443-14.428.443-14.428" fill="#1f7697"/><path d="M250.495 113.771s3.622-2.562 4.072-6.218c.449-3.655-.316-6.756-1.711-6.929-1.394-.17-2.888 2.652-3.337 6.31-.45 3.654-.494 6.658-.494 6.658l1.47.179z" fill="#fff"/><path d="M252.857 100.624c-2.995-.25-2.273 3.945-5.024 6.272 0 0 4.333 2.002 5.024-6.272" fill="#fff"/><ellipse stroke-miterlimit="10" cx="384.452" cy="294.916" rx="280.623" ry="126.096" fill="none" stroke="#231f20" stroke-dasharray="7.9781,7.9781" opacity=".3"/><ellipse cx="253.29" cy="267.156" rx="45.335" ry="20.37" fill="#e6e7e8"/><ellipse cx="253.29" cy="265.423" rx="45.335" ry="20.371" fill="#fff"/><path d="M257.665 260.513a5.028 5.028 0 1 1-10.058 0V151.405a5.028 5.028 0 1 1 10.058 0v109.108z" fill="#231f20"/><ellipse cx="253.29" cy="158.663" rx="130.695" ry="58.728" fill="#e6e7e8"/><ellipse cx="253.29" cy="154.692" rx="130.695" ry="58.728" fill="#fff"/><ellipse cx="341.296" cy="276.99" rx="2.979" ry="4.47"/><ellipse cx="339.353" cy="276.99" rx="2.98" ry="4.47"/><ellipse cx="391.314" cy="247.221" rx="2.98" ry="4.469"/><ellipse cx="389.371" cy="247.221" rx="2.981" ry="4.469"/><path d="M393.321 275.596c0 2.469-1.332 4.472-2.98 4.472-1.645 0-2.979-2.003-2.979-4.472 0-2.468 1.334-4.471 2.979-4.471 1.648 0 2.98 2.003 2.98 4.471z"/><path d="M391.377 275.596c0 2.469-1.332 4.472-2.98 4.472-1.645 0-2.979-2.003-2.979-4.472 0-2.468 1.334-4.471 2.979-4.471 1.648 0 2.98 2.003 2.98 4.471z"/><ellipse cx="340.787" cy="247.221" rx="2.979" ry="4.469"/><path d="M341.823 247.221c0 2.468-1.333 4.469-2.981 4.469-1.645 0-2.979-2.001-2.979-4.469 0-2.471 1.333-4.474 2.979-4.474 1.648 0 2.981 2.003 2.981 4.474zM335.863 272.688v4.208s1.146 2.057 3.23 1.162c2.082-.893 52.799-30.042 52.799-30.042s1.038-.69 1.038-2.645v-3.837"/><path d="M392.929 272.688v4.208s-1.146 2.057-3.23 1.162c-2.082-.893-52.799-30.042-52.799-30.042s-1.038-.69-1.038-2.645v-3.837"/><path d="M338.263 239.713l54.655 31.118s1.214 2.41-.921 3.21c-2.135.8-3.735 0-3.735 0l-52.429-31.083s-1.066-1.069 0-2c1.067-.937 2.43-1.245 2.43-1.245z" fill="#231f20"/><path d="M336.098 271.237l52.563-31.524s2.534-.76 3.736.976c1.2 1.734 0 2.934 0 2.934l-52.164 30.773s-2.266 1.023-3.602 0c-1.334-1.022-.533-3.159-.533-3.159z" fill="#231f20"/><g fill="#231f20"><path d="M358.807 241.785h11.24v16.146h-11.24z"/><ellipse cx="364.427" cy="241.787" rx="5.62" ry=".96"/></g><path d="M366.606 240.753a2.293 2.293 0 0 1-2.295 2.292 2.292 2.292 0 0 1-2.295-2.292v-9.68a2.296 2.296 0 0 1 2.295-2.295 2.296 2.296 0 0 1 2.295 2.295v9.68z"/><path d="M330.015 219.529v8.787l36.501 19.222 36.499-21.469v-9.612l-44.168-2.045z"/><path fill="#231f20" d="M403.015 216.457l-38.851 22.083-34.149-19.011 37.828-22.701z"/><path d="M166.135 113.759l29.595-7.78-1.472-2.264-23.191 3.86-12.794-8.93c-7.239-4.578-13.239-5.001-11.4-.813 2.66 6.072 19.262 15.927 19.262 15.927" fill="#a8999a"/><path d="M146.77 92.936s4.783-.543 10.955 3.804c2.393 1.687 13.343 10.834 13.343 10.834l-4.933 6.185s-10.34-5.446-13.905-7.436c-8.985-5.019-5.46-13.387-5.46-13.387" fill="#f1eced"/><path d="M197.345 103.31s-2.095 3.781-5.589 4.603c-3.491.824-6.577.41-6.891-.92-.313-1.333 2.264-3.08 5.754-3.902 3.495-.824 6.398-1.184 6.398-1.184l.328 1.403z" fill="#a8999a"/><path d="M184.865 106.993c-.669-2.85 3.475-2.759 5.322-5.743 0 0 2.553 3.887-5.322 5.743" fill="#a8999a"/><path d="M140.388 98.276s3.725-2.631 5.611-7.875l1.594 2.775c-1.004 3.922-5.207 9.52-5.207 9.52-.05-3.451-1.998-4.42-1.998-4.42" fill="#00d1b8"/><g><path d="M169.258 137.206l-21.359-14.687s-.967-1.184 0-1.936 31.964-18.2 31.964-18.2.774-.554 1.991.331c1.216.885 19.074 16.714 19.074 16.714" fill="#dd5e4a"/><path fill="#231f20" d="M165.704 125.392l-7.3-5.53 18.915-11.394 2.102-1.327 6.084 6.747"/><path d="M169.734 109.968l29.815-16.722s1.944-.647 1.944.517V117.875s.142 1.094-.564 1.555l-31.195 18.033s-1.187.233-1.187-1.523v-24.119c.001 0-.102-1.131 1.187-1.853z" fill="#f27356"/></g><g><ellipse cx="102.192" cy="276.13" rx="3.727" ry="5.591"/><ellipse cx="99.761" cy="276.13" rx="3.727" ry="5.591"/><path d="M168.484 238.893c0 3.086-1.668 5.59-3.728 5.59-2.06 0-3.728-2.504-3.728-5.59 0-3.09 1.668-5.596 3.728-5.596 2.06 0 3.728 2.506 3.728 5.596z"/><ellipse cx="162.326" cy="238.893" rx="3.728" ry="5.59"/><ellipse cx="163.54" cy="274.386" rx="3.727" ry="5.592"/><path d="M164.836 274.386c0 3.088-1.667 5.592-3.728 5.592-2.056 0-3.725-2.504-3.725-5.592 0-3.088 1.668-5.593 3.725-5.593 2.061 0 3.728 2.505 3.728 5.593zM105.283 238.893c0 3.086-1.667 5.59-3.726 5.59-2.06 0-3.728-2.504-3.728-5.59 0-3.09 1.667-5.596 3.728-5.596 2.058 0 3.726 2.506 3.726 5.596z"/><path d="M102.853 238.893c0 3.086-1.668 5.59-3.73 5.59-2.058 0-3.726-2.504-3.726-5.59 0-3.09 1.668-5.596 3.726-5.596 2.061 0 3.73 2.506 3.73 5.596zM95.396 270.748v5.263s1.436 2.574 4.041 1.455c2.605-1.116 66.042-37.578 66.042-37.578s1.299-.862 1.299-3.307v-4.801"/><path d="M166.777 270.748v5.263s-1.434 2.574-4.04 1.455c-2.605-1.116-66.044-37.578-66.044-37.578s-1.298-.862-1.298-3.307v-4.801"/><path d="M98.398 229.501l68.365 38.924s1.519 3.015-1.152 4.016c-2.67.999-4.672 0-4.672 0L95.358 233.56s-1.333-1.336 0-2.502c1.335-1.169 3.04-1.557 3.04-1.557z" fill="#231f20"/><path d="M95.69 268.934l65.748-39.432s3.169-.95 4.673 1.22c1.501 2.17 0 3.672 0 3.672l-65.248 38.492s-2.835 1.28-4.506 0c-1.667-1.28-.667-3.952-.667-3.952z" fill="#231f20"/><g fill="#231f20"><path d="M124.096 232.093h14.06v20.195h-14.06z"/><ellipse cx="131.126" cy="232.096" rx="7.03" ry="1.202"/></g><path d="M133.851 230.803a2.87 2.87 0 0 1-2.871 2.868 2.87 2.87 0 0 1-2.87-2.868v-12.109a2.873 2.873 0 0 1 2.87-2.871 2.872 2.872 0 0 1 2.871 2.871v12.109z"/></g><g><path d="M88.392 211.774v8.572l35.6 18.747 35.599-20.939v-9.376l-43.078-1.994z"/><path fill="#231f20" d="M159.591 208.778l-37.892 21.539-33.307-18.543 36.895-22.142z"/></g><g><path d="M170.103 246.569l4.897.967-1.652-36.982c-.136-3.034-5.125-5.704-8.099-5.085 0 0-2.031 2.885-1.396 9.241 1.369 13.692 6.25 31.859 6.25 31.859" fill="#ecc8c2"/><path d="M189.886 251.018l-19.546-.139s-3.207-3.76-.168-6.97l6.306-.68s14.289 1.594 13.408 7.789" fill="#00d1b8"/></g><path d="M163.558 170.793c12.322-2.66 21.919 7.113 21.919 7.113l-13.281 29.318s-7.381-12.007-18.073-12.903c-.766-.065-1.439-.509-1.924-1.186-1.995-2.784-5.906-8.167-12.158-7.506l8.872-19.588c8.778-2.604 14.645 4.752 14.645 4.752" fill="#005779"/><path d="M171.854 203.429s-7.125-12.127-17.87-11.5l10.638-23.484c11.843-3.054 19.868 6.073 19.868 6.073l-12.636 28.911zM153.984 191.929s-4.595-9.058-11.666-7.865l8.643-19.772c8.151-2.886 13.66 4.153 13.66 4.153l-10.637 23.484z" fill="#fff"/><path stroke-miterlimit="10" fill="none" stroke="#dce1e0" stroke-linecap="round" d="M163.475 170.975l-8.346 18.424"/><path d="M135.449 204.348s12.08-7.248 16.429-6.765c4.349.483 17.219 7.92 17.219 7.92l-.72 7.782s-18.432 9.908-30.029 9.425c-11.597-.484-2.899-18.362-2.899-18.362z" fill="#2a11a8"/><path d="M114.024 166.977c9.715-8.021 8.063 3.36 13.595-7.896 2.229-4.535 3.381 7.923 8.704 13.479 2.812 2.935-6.995 6.06-11.175 7.233-12.044 3.379-21.28-4.432-11.124-12.816" fill="#ecc8c2"/><path d="M139.855 184.529c2.759-19.774-9.58-9.715-15.27-13.281-5.691-3.566-2.89-7.206-2.89-7.206s-11.374-4.633-15.722 8.414c-4.349 13.046-2.416 37.69.966 42.522 3.382 4.832 25.127 17.396 34.791 4.832 9.664-12.564-1.689-34.181-1.689-34.181" fill="#ff7353"/><path d="M121.509 150.491c-1.172 13.262 9.208 18.475 15.103 18.996 5.896.522 17.029-2.791 18.202-16.052.898-10.161-4.865-18.971-15.026-19.871-10.162-.897-17.382 6.765-18.279 16.927" fill="#ecc8c2"/><path d="M120.925 150.127c.776 8.961 16.355 11.801 16.355 11.801s15.836-.063 18.172-8.749c1.313-4.88 1.049-10.335-.616-15.03-11.803-1.042-6.732-10.947-13.296-11.526-11.598-1.025-21.62 11.904-20.615 23.504" fill="#ffe985"/><path d="M126.721 135.106c9.809 10.413 24.042 5.983 27.551-5.288-6.971-6.756-22.58-9.491-27.551 5.288" fill="#ffe985"/><path d="M126.733 134.97c6.272 12.613 24.252 14.42 33.312 6.271-4.749-8.42-21.019-16.811-33.312-6.271" fill="#ffe985"/><path d="M135.052 175.06c-12.774 4.64-17.606 33.535-3.203 19.065 8.326-8.366 3.203-19.065 3.203-19.065" fill="#ecc8c2"/><path d="M140.997 205.952l26.656-6.154 1.064 2.546-31.282 12.19-6.918-25.275c-.527-11.471 3.061-17.779 6.719-12.86 5.303 7.13 3.761 29.553 3.761 29.553" fill="#ecc8c2"/><path d="M184.372 197.863s-3.102 4.896-7.838 5.725c-4.739.831-8.836.038-9.152-1.77-.316-1.806 3.268-3.944 8.005-4.773 4.739-.831 8.651-1.086 8.651-1.086l.334 1.904z" fill="#ecc8c2"/><path d="M167.382 201.819c-.678-3.867 4.864-3.42 7.568-7.273 0 0 3.113 5.403-7.568 7.273" fill="#ecc8c2"/><g><path d="M124.091 219.478a4.877 4.877 0 0 1-4.875 4.874l-24.633-15.089a4.875 4.875 0 0 1-4.875-4.874v-38.992a4.876 4.876 0 0 1 4.875-4.875l24.633 15.088c2.528 1.118 4.895 3.276 4.875 4.875v38.993z" fill="#231f20"/><path d="M119.692 219.163a4.875 4.875 0 0 1-4.874 4.875l-24.634-15.09a4.875 4.875 0 0 1-4.874-4.875v-38.99a4.877 4.877 0 0 1 4.874-4.875l24.634 15.087c2.527 1.119 4.894 3.277 4.874 4.875v38.993z"/></g><path d="M357.039 237.732c8.977-3.318.05-9.294-10.036-3.124l-2.048 2.067s-2.727 4.963 1.553 5.921c3.078.691 6.252-3.282 10.531-4.864" fill="#ff7353"/><path fill="none" d="M449.083 195.59H332.987v41.853"/><path d="M215.878 28.665s-13.792-20.229-28.809-11.34c-15.017 8.889-20.227 33.407 3.065 30.648 23.293-2.759 33.1-5.21 25.744-19.308z" fill="#fff"/><circle cx="217.785" cy="45.654" r="2.933" fill="#fff"/><circle cx="222.671" cy="49.564" r="1.815" fill="#fff"/><path d="M84.426 96.562s25.849-10.809 31.019 2.351c5.168 13.159 13.158 26.317.468 30.078-12.688 3.76-27.727 13.628-34.308-.941-6.578-14.57-10.337-24.909 2.821-31.488z" fill="#fff"/><circle cx="115.8" cy="135.572" r="4.51" fill="#fff"/><circle cx="118.699" cy="145.236" r="3.222" fill="#fff"/><g opacity=".05"><defs><path id="e" d="M209.424 305.027h63.726v22.139h-63.726z"/></defs><clipPath id="f"><use xlink:href="#e" overflow="visible" width="730.463" height="434.979"/></clipPath><path clip-path="url(#f)" d="M209.428 312.294c0 4.014 4.818 20.023 23.062 13.2 19.154-7.164 40.661-9.187 40.661-13.2s-12.384-7.266-31.862-7.266c-19.477 0-31.861 3.253-31.861 7.266" fill="#0e1414"/></g><path d="M236.828 170.612l.669-7.197a2.307 2.307 0 0 1 4.594 0l.669 7.197a3.676 3.676 0 0 0 3.125 3.292c7.941 1.174 10.565 5.556 10.565 5.556l-16.656 13.484-16.657-13.484s2.625-4.382 10.566-5.556a3.677 3.677 0 0 0 3.125-3.292" fill="#ecc8c2"/><path d="M221.087 216.476l-20.505-10.598 3.917-2.304 12.212 6.678 1.6-19.987c2.023-9.671 7.077-16.567 9.07-11.683 2.889 7.079-4.464 30.681-4.464 30.681M230.043 248.337s-4.417-2.316-5.46-6.32c-1.046-4.005-.653-7.574.874-7.973 1.527-.398 3.613 2.525 4.657 6.53a77.368 77.368 0 0 1 1.539 7.343l-1.61.42z" fill="#ecc8c2"/><path d="M225.457 234.044c3.269-.853 3.275 3.932 6.769 5.979 0 0-4.415 3.05-6.769-5.979" fill="#ecc8c2"/><path d="M223.256 237.519c.272-11.566 2.523-15.005 2.523-15.005H254.2s2.251 3.439 2.524 15.005c0 0-6.615 8.967-17.315 8.967-10.7-.001-16.153-8.967-16.153-8.967" fill="#ecc8c2"/><path d="M256.578 310.119c7.077-2.614.041-7.325-7.909-2.462l-1.614 1.63s-2.149 3.912 1.224 4.668c2.426.543 4.927-2.589 8.299-3.836M234.375 308.307c4.995-3.569-2.796-6.291-7.666-.632l-.739 1.701s-.313 3.759 2.842 3.775c2.27.011 3.182-3.143 5.563-4.844" fill="#ff7353"/><path d="M241.289 237.519c1.025 14.669 7.551 37.079 7.551 37.079-3.127 10.04-.202 33.222-.202 33.222h4.002l2.881-33.226 1.203-37.075h-15.435zM238.691 237.519c-1.026 14.669-7.551 37.079-7.551 37.079 3.126 10.04.202 33.222.202 33.222h-4.003l-2.88-33.226-1.202-37.075h15.434z" fill="#ecc8c2"/><path d="M239.794 263.635c16.467 0 24.587-4.066 24.587-4.066-7.789-29.252-3.222-42.15-10.376-49.305h-28.422c-7.153 7.155-2.587 20.052-10.375 49.305 0-.001 8.12 4.066 24.586 4.066" fill="#ff6152"/><path d="M267.386 202.433l-4.275-13.998c-4.056-9.011-10.474-14.659-11.37-9.461-1.299 7.535 10.986 28.347 10.986 28.347s2.638-.434 3.853-1.338c1.218-.905.806-3.55.806-3.55" fill="#ecc8c2"/><path d="M221.159 177.61l6.643-2.674s-.085 11.116 11.993 11.116c12.078 0 11.993-11.116 11.993-11.116l6.642 2.674s-5.275 20.677-3.649 33.917c0 0-4.399 3.742-14.986 3.742s-14.985-3.742-14.985-3.742c1.625-13.24-3.651-33.917-3.651-33.917" fill="#2a11a8"/><path d="M256.781 247.869l15.024-18.052c.206-.248.309-.563.29-.882l-1.278-20.249a1.253 1.253 0 0 0-1.32-1.175l-15.86.854a1.257 1.257 0 0 0-1.187 1.325l2.111 37.447c.064 1.137 1.491 1.609 2.22.732" fill="#e4f8ff"/><path d="M265.435 239.068c-.334-4.126-1.88-7.366-3.454-7.239-1.572.126-2.577 3.575-2.243 7.699.333 4.125.615 5.306.615 5.306s5.416-1.64 5.082-5.766" fill="#ecc8c2"/><path d="M261.981 231.829c-3.368.272-1.796 4.791-4.42 7.876.001.001 5.172 1.425 4.42-7.876" fill="#ecc8c2"/><path d="M268.968 207.609l-5.906 25.611-2.277-.67 1.941-25.229-3.218-5.832s1.155-2.934 2.963-3.303c1.808-.37 4.181 1.842 4.181 1.842l2.316 7.581zM224.005 152.858c0 12.411 10.066 16.4 15.583 16.4 5.518 0 15.583-3.989 15.583-16.4 0-9.509-6.074-17.217-15.583-17.217-9.509.001-15.583 7.708-15.583 17.217" fill="#ecc8c2"/><path d="M229.394 130.598c18.666-22.421 56.696 18.503 25.648 50.852-6.114-19.018-49.725-21.932-25.648-50.852" fill="#fff4c2"/><path d="M227.797 138.769c3.064 13.797 23.973 16.791 23.973 16.791s-15.226-29.276-23.973-16.791" fill="#fff4c2"/><path d="M232.49 135.29c1.038 14.461 26.663 19.077 26.663 19.077s-5.605-25.381-26.663-19.077" fill="#fff4c2"/><path d="M347.507 202.733s-2.442 3.366-1.101 7.338c1.341 3.972 14.071-1.5 14.071-1.5s-11.553-8.306-12.97-5.838z" fill="#ecc8c2"/><path d="M358.832 240.988c10.363-3.832.058-10.731-11.585-3.607l-2.365 2.388s-3.148 5.73 1.794 6.837c3.552.796 7.216-3.791 12.156-5.618" fill="#ff7353"/><path d="M309.121 174.63c4.114 4.456 8.824 6.791 10.524 5.222 1.698-1.564-.261-6.45-4.373-10.902-4.11-4.454-5.502-5.559-5.502-5.559s-4.763 6.784-.649 11.239" fill="#ecc8c2"/><path d="M319.645 179.855c3.635-3.357-2.261-7.146-2.021-13.073 0 0-7.253 3.031 2.021 13.073" fill="#ecc8c2"/><path d="M369.81 207.143s4.752 19.125-3.13 18.912c-7.881-.213-24.496-6.178-24.496-6.178s-18.745-1.278-16.615-5.963c2.13-4.686 40.193-7.198 44.241-6.771z" fill="#0e1414"/><path d="M368.577 201.503s-19.214-1.058-21.329.528c-2.115 1.587-4.702 7.182-4.702 7.182l28.146 1.632-2.115-9.342z" fill="#070a0a"/><path d="M321.947 176.805s-2.083 4.422-4.068 5.353l20.989 14.239 14.058-6.743s1.298 2.663 1.059 7.373c-.239 4.712 2.166.929 2.166.929l1.898-27.763-21.073 15.794-15.029-9.182z" fill="#00d1b8"/><path d="M358.048 170.193l-4.064 26.834s-1.575 4.105 1.833 6.449c3.408 2.343 13.911 18.93 15.402 13.817 1.491-5.112 11.224-34.692 11.224-34.692l-21.301-18.532-3.094 6.124z" fill="#00d1b8"/><path fill="#efeded" d="M332.626 119.132l-31.437 19.499-23.026-15.037 31.24-16.613z"/><path fill="#f4f2f2" d="M330.452 119.132l-31.437 19.499-23.026-15.037 31.24-16.613z"/><path stroke-miterlimit="10" fill="#f4f2f2" stroke="#a7a9ac" stroke-linecap="round" d="M293.458 126.551l8.939 5.557"/><path stroke-miterlimit="10" fill="none" stroke="#d1d3d4" stroke-linecap="round" d="M291.283 119.545l15.463 9.422M294.907 116.887l15.463 9.423M298.773 114.954l15.462 9.423M302.88 113.021l15.463 9.423"/><path fill="#f4f2f2" d="M337.798 183l-22.3-25.03 21.169-15.676 19.223 21.741z"/><path stroke-miterlimit="10" fill="#f4f2f2" stroke="#a7a9ac" stroke-linecap="round" d="M330.545 153.856l-8.457 6.269"/><path stroke-miterlimit="10" fill="none" stroke="#d1d3d4" stroke-linecap="round" d="M339.289 153.007l-14.618 10.685M341.705 156.269l-14.617 10.685M344.121 159.167l-14.617 10.686"/><path d="M362.473 106.388l-2.309 2.729-1.26 1.399-.07 1.959 1.679-.629 5.668-7.417s.274-1.157-.7-1.329c-.509-.09-3.008 3.288-3.008 3.288z" fill="#a7a9ac"/><path d="M376.835 183.346c6.648-1.5 15.218-9.397 12.54-13.569-2.677-4.173 3.571-6.907 2.525-11.544-1.047-4.631-6.093-4.504-3.241-8.792 2.286-3.431-3.429-5.435-3.822-8.948-1.019-9.092-11.031-15.646-20.387-13.536-9.354 2.108-15.582 12.328-12.599 20.974 1.155 3.347-3.145 7.608.394 9.728 4.416 2.645-.199 4.695.846 9.33 1.044 4.633 7.862 4.422 7.236 9.34-.629 4.917 9.862 8.517 16.508 7.017" fill="#005779"/><path d="M396.795 154.477l-28.216 16.565s-2.862 2.245-2.862 10.017v36.603s1.438 8.12 6.133 6.544l27.4-16.565s2.862-3.271 2.862-9.814v-38.033s1.632-6.544-5.317-5.317z"/><path d="M400.56 156.342l-28.219 16.565s-2.863 2.246-2.863 10.016v36.606s1.438 8.116 6.134 6.541l27.403-16.565s2.862-3.271 2.862-9.815v-38.032s1.632-6.546-5.317-5.316z" fill="#231f20"/><g><path fill="#f8982a" d="M565.973 86.686L325.01 217.099v178.385l240.963-139.487z"/><path fill="#f8982a" d="M565.039 108.335l-14.69-10.824 15.624-10.825 8.201 3.27z"/><path fill="#ffc257" d="M574.174 89.956L333.212 220.369v178.382l240.962-139.484z"/><path d="M503.422 345.04l23.634-2.302s.633-3.829-3.361-6.644l-4.821-.182c0 .001-17.127 3.148-15.452 9.128M489.551 370.851c-3.348 1.697-10.456-1.918-10.456-1.918s.25-8.135 16.464-10.335c0 0 4.954 1.627 6.679 2.189 1.776 2.131-.061 5.999-.061 5.999s-9.275 2.37-12.626 4.065" fill="#ff6152"/><path d="M520.941 300.917c0 2.59-2.1 4.69-4.689 4.69a4.69 4.69 0 0 1-4.69-4.69v-57.966a4.69 4.69 0 0 1 9.379 0v57.966z" fill="#e6e7e8"/><path d="M543.7 300.824s-17.77-5.188-26.295-2.594c-8.524 2.594-2.964 37.432-2.964 37.432s4.868 7.051 13.739 4.084v-25.945l20.227 12.152-4.707-25.129z" fill="#334040"/><path d="M412.514 364.918a4.69 4.69 0 0 1-4.69 4.688 4.69 4.69 0 0 1-4.69-4.688v-57.966a4.688 4.688 0 0 1 4.69-4.689c2.59 0 4.69 2.097 4.69 4.689v57.966zM454.85 388.181a4.689 4.689 0 1 1-9.378 0v-57.966c0-2.592 2.1-4.69 4.69-4.69a4.688 4.688 0 0 1 4.688 4.69v57.966z" fill="#e6e7e8"/><path fill="#e6e7e8" d="M574.599 268.681v-4.501L387.75 299.823v4.125l60.783 36.396z"/><path fill="#fff" d="M574.599 264.18l-126.066 72.787-60.783-37.144 128.692-71.287z"/><path fill="#d1d3d4" d="M469.705 254.763v6.161l10.269 4.106-15.459 7.393-7.34-4.312v-6.778"/><path d="M437.691 228.301l52.303-29.335s3.41-1.136 3.41.909v42.297s.248 1.919-.99 2.727l-54.723 31.634s-2.081.409-2.081-2.672v-42.308c0-.001-.18-1.985 2.081-3.252z" fill="#231f20"/><path d="M493.404 234.699v7.473s.248 1.919-.99 2.727l-54.723 31.634s-2.081.409-2.081-2.672v-7.456M526.885 274.464l-42.963 25.711-12.323-10.324 42.516-24.523z" fill="#d1d3d4"/><ellipse cx="515.199" cy="389.985" rx="3.067" ry="4.602"/><ellipse cx="513.198" cy="389.985" rx="3.068" ry="4.602"/><ellipse cx="566.7" cy="359.332" rx="3.068" ry="4.602"/><ellipse cx="564.698" cy="359.332" rx="3.069" ry="4.602"/><ellipse cx="565.698" cy="388.549" rx="3.067" ry="4.604"/><ellipse cx="563.697" cy="388.549" rx="3.068" ry="4.604"/><ellipse cx="514.675" cy="359.332" rx="3.068" ry="4.602"/><ellipse cx="512.673" cy="359.332" rx="3.068" ry="4.602"/><path d="M509.605 385.555v4.333s1.181 2.117 3.325 1.197c2.145-.918 54.365-30.933 54.365-30.933s1.068-.71 1.068-2.723v-3.952"/><path d="M568.363 385.555v4.333s-1.181 2.117-3.326 1.197c-2.145-.918-54.364-30.933-54.364-30.933s-1.068-.71-1.068-2.723v-3.952"/><path d="M512.076 351.603l56.275 32.041s1.25 2.481-.948 3.305c-2.198.824-3.847 0-3.847 0l-53.982-32.005s-1.099-1.101 0-2.06c1.098-.963 2.502-1.281 2.502-1.281z" fill="#231f20"/><path d="M509.846 384.062l54.121-32.459s2.609-.782 3.847 1.004c1.236 1.786 0 3.022 0 3.022l-53.708 31.686s-2.334 1.055-3.709 0c-1.375-1.053-.551-3.253-.551-3.253z" fill="#231f20"/><g fill="#231f20"><path d="M533.229 353.735h11.573v16.625h-11.573z"/><ellipse cx="539.016" cy="353.738" rx="5.787" ry=".988"/></g><path d="M541.258 352.674a2.36 2.36 0 0 1-2.363 2.36 2.36 2.36 0 0 1-2.362-2.36v-9.967a2.364 2.364 0 0 1 4.725 0v9.967z"/><path d="M512.048 325.524v8.063l33.488 17.636 33.485-19.698v-8.818L538.5 320.83z"/><path fill="#231f20" d="M579.021 322.707l-35.644 20.26-31.329-17.443 34.705-20.827z"/><path d="M563.631 320.83h5.073v15.197h-5.073z"/><path d="M541.129 313.43s-40.774-10.378-43.741 0c-2.965 10.378-8.153 44.481-8.153 44.481s1.852 5.561 13.343 4.448l7.786-37.439s48.928 17.422 51.152-2.965l-20.387-8.525z" fill="#334040"/><path d="M507.73 274.352s4.59-2.739 8.833-1.448c4.245 1.286 7.284 3.646 6.793 5.264-.488 1.619-4.329 1.888-8.573.596-4.244-1.289-7.569-2.708-7.569-2.708l.516-1.704z" fill="#ffeceb"/><path d="M523.358 278.167c-1.053 3.463-5.426.789-9.253 2.835 0 0-.315-5.74 9.253-2.835" fill="#ffeceb"/><path d="M528.466 238.674s-5.97 26.623 14.184 22.891l2.736 6.72 8.707-4.728-3.73-10.079-21.897-14.804z" fill="#f1eced"/><path d="M524.236 237.43s8.214-11.444 19.159-9.952c10.948 1.491 14.43 14.805 10.698 20.403-3.73 5.597-2.305 9.451-2.305 9.451s-12.375-1.49-13.868-10.447c-1.491-8.957-12.688-3.484-13.684-9.455z" fill="#2a11a8"/><path d="M537.793 274.879h-15.198s-4.077 2.595-2.966 5.932c1.111 3.334 10.904 1.853 10.904 1.853l7.26-7.785z" fill="#1f7699"/><path d="M535.569 275.249s10.38-18.536 18.906-17.793c8.524.74 12.602 60.792 12.602 60.792s-1.854 9.638-15.754 8.155c-13.899-1.483-15.754-10.009-15.754-10.009v-41.145z" fill="#1f7699"/><path d="M573.316 265.844l-25.887 15.197s-2.627 2.06-2.627 9.189v33.582s1.318 7.45 5.628 6.004l25.138-15.198s2.627-3.001 2.627-9.003v-34.893s1.496-6.005-4.879-4.878z"/><path d="M576.768 267.554l-25.888 15.198s-2.627 2.06-2.627 9.188v33.584s1.318 7.447 5.628 6.001l25.14-15.197s2.627-3.002 2.627-9.005v-34.892s1.497-6.005-4.88-4.877z" fill="#231f20"/><path d="M484.322 294.709s3.903 4.654 8.939 4.857c5.042.202 9.188-1.191 9.266-3.114.075-1.922-3.945-3.642-8.984-3.844-5.036-.202-9.14.079-9.14.079l-.081 2.022z" fill="#f1eced"/><path d="M502.525 296.452c.006-4.116-5.637-2.658-9.123-6.15 0 0-2.244 6.139 9.123 6.15" fill="#f1eced"/><path d="M541.5 272.285s7.786 10.881-5.932 19.711l-13.716 8.828h-22.611l2.224-8.828 18.164-1.549s17.052-22.241 21.871-18.162z" fill="#1f7699"/><g><path fill="#95ab3b" d="M400.609 293.529l21.978-13.295 29.032 16.281v4.614l-22.791 13.294-28.219-15.727z"/><path fill="#fff" d="M400.609 294.942l27.824 15.527 21.362-12.403v2.399l-21.154 12.4-28.032-15.536z"/><defs><path id="g" d="M400.609 293.529l21.978-13.295 29.032 16.281v4.614l-22.791 13.294-28.219-15.727z"/></defs><clipPath id="h"><use xlink:href="#g" overflow="visible" width="730.463" height="434.979"/></clipPath><path clip-path="url(#h)" stroke-miterlimit="10" fill="none" stroke="#808e29" stroke-width=".25" d="M428.641 312.865l-28.032-15.536v-2.387l27.824 15.527 21.362-12.403v2.399z"/><g><path fill="#f27356" d="M399.697 288.19l21.978-13.294 29.033 16.28v4.614l-22.792 13.295-28.219-15.727z"/><path fill="#fff" d="M399.697 289.603l27.825 15.526 21.362-12.4v2.397l-21.154 12.401-28.033-15.538z"/><defs><path id="i" d="M399.697 288.19l21.978-13.294 29.033 16.28v4.614l-22.792 13.295-28.219-15.727z"/></defs><clipPath id="j"><use xlink:href="#i" overflow="visible" width="730.463" height="434.979"/></clipPath><path clip-path="url(#j)" stroke-miterlimit="10" fill="none" stroke="#c93927" stroke-width=".25" d="M427.73 307.527l-28.033-15.538v-2.386l27.825 15.526 21.362-12.4v2.397z"/></g></g><path fill="#f8982a" d="M325.01 395.484l8.202 3.267v-14.794"/></g><path d="M196.384 205.271c3.847 1.528 7.437 1.577 8.02.109.582-1.466-2.065-3.893-5.91-5.421-3.846-1.528-5.029-1.8-5.029-1.8s-.928 5.584 2.919 7.112" fill="#ecc8c2"/><path d="M204.404 205.381c1.247-3.139-3.5-3.731-5.104-7.451 0 0-3.567 4.006 5.104 7.451" fill="#ecc8c2"/></g></svg>